<svg width="644" height="192" viewBox="0 0 644 192" fill="none" xmlns="http://www.w3.org/2000/svg">
<path d="M0.64 134.672H3.04C3.44533 133.883 3.76533 132.933 4 131.824C4.256 130.693 4.448 129.488 4.576 128.208C4.72533 126.928 4.82133 125.616 4.864 124.272C4.928 122.928 4.96 121.637 4.96 120.4V115.6H20.128V134.672H22.72V142.16H19.2V138H4.16V142.16H0.64V134.672ZM16.288 134.672V118.928H8.672V121.04C8.672 124.112 8.52267 126.747 8.224 128.944C7.92533 131.141 7.49867 133.051 6.944 134.672H16.288ZM26.7325 138.352C26.5618 138.352 26.3698 138.341 26.1565 138.32C25.9645 138.32 25.7832 138.299 25.6125 138.256V134.928C25.7192 134.949 25.8792 134.96 26.0925 134.96C26.5405 134.96 26.9245 134.832 27.2445 134.576C27.5645 134.299 27.8205 133.829 28.0125 133.168C28.2258 132.485 28.3858 131.579 28.4925 130.448C28.5992 129.317 28.6525 127.888 28.6525 126.16V121.04H41.4525V138H37.9325V124.048H32.0445V126.8C32.0445 129.083 31.9272 130.971 31.6925 132.464C31.4792 133.936 31.1485 135.109 30.7005 135.984C30.2525 136.859 29.6978 137.477 29.0365 137.84C28.3752 138.181 27.6072 138.352 26.7325 138.352ZM49.2235 131.568C47.9435 131.184 46.9942 130.555 46.3755 129.68C45.7568 128.805 45.4475 127.749 45.4475 126.512C45.4475 124.848 46.0022 123.525 47.1115 122.544C48.2208 121.541 49.9062 121.04 52.1675 121.04H59.8475V138H56.3275V131.984H52.6795L48.9035 138H44.8075L49.2235 131.568ZM49.0315 126.512C49.0315 127.408 49.2982 128.048 49.8315 128.432C50.3648 128.795 51.0902 128.976 52.0075 128.976H56.3275V124.048H52.0075C51.0902 124.048 50.3648 124.24 49.8315 124.624C49.2982 124.987 49.0315 125.616 49.0315 126.512ZM76.0213 124.048H70.4213V121.04H85.1413V124.048H79.5413V138H76.0213V124.048ZM88.0213 121.04H96.0213C98.1546 121.04 99.7013 121.477 100.661 122.352C101.621 123.205 102.101 124.304 102.101 125.648C102.101 126.395 101.877 127.12 101.429 127.824C100.981 128.507 100.352 128.965 99.5413 129.2C100.587 129.456 101.376 129.947 101.909 130.672C102.464 131.376 102.741 132.208 102.741 133.168C102.741 134.64 102.251 135.813 101.269 136.688C100.288 137.563 98.7519 138 96.6613 138H88.0213V121.04ZM96.1813 134.992C97.3333 134.992 98.1226 134.811 98.5493 134.448C98.9973 134.064 99.2213 133.531 99.2213 132.848C99.2213 132.165 98.9973 131.653 98.5493 131.312C98.1226 130.949 97.3333 130.768 96.1813 130.768H91.5413V134.992H96.1813ZM95.7013 128.016C96.7679 128.016 97.5146 127.845 97.9413 127.504C98.3679 127.141 98.5813 126.651 98.5813 126.032C98.5813 125.413 98.3679 124.933 97.9413 124.592C97.5146 124.229 96.7679 124.048 95.7013 124.048H91.5413V128.016H95.7013ZM113.631 138.352C112.458 138.352 111.359 138.171 110.335 137.808C109.333 137.424 108.458 136.869 107.711 136.144C106.965 135.419 106.378 134.523 105.951 133.456C105.525 132.368 105.311 131.109 105.311 129.68V129.04C105.311 127.696 105.525 126.512 105.951 125.488C106.378 124.443 106.965 123.568 107.711 122.864C108.458 122.139 109.333 121.595 110.335 121.232C111.359 120.869 112.458 120.688 113.631 120.688C114.805 120.688 115.893 120.869 116.895 121.232C117.919 121.595 118.805 122.139 119.551 122.864C120.298 123.568 120.885 124.443 121.311 125.488C121.738 126.512 121.951 127.696 121.951 129.04V129.68C121.951 131.109 121.738 132.368 121.311 133.456C120.885 134.523 120.298 135.419 119.551 136.144C118.805 136.869 117.919 137.424 116.895 137.808C115.893 138.171 114.805 138.352 113.631 138.352ZM113.631 135.28C114.25 135.28 114.837 135.173 115.391 134.96C115.967 134.747 116.469 134.416 116.895 133.968C117.343 133.52 117.695 132.944 117.951 132.24C118.229 131.536 118.367 130.683 118.367 129.68V129.04C118.367 128.123 118.229 127.333 117.951 126.672C117.695 126.011 117.343 125.467 116.895 125.04C116.469 124.613 115.967 124.293 115.391 124.08C114.837 123.867 114.25 123.76 113.631 123.76C113.013 123.76 112.415 123.867 111.839 124.08C111.285 124.293 110.783 124.613 110.335 125.04C109.909 125.467 109.557 126.011 109.279 126.672C109.023 127.333 108.895 128.123 108.895 129.04V129.68C108.895 130.683 109.023 131.536 109.279 132.24C109.557 132.944 109.909 133.52 110.335 133.968C110.783 134.416 111.285 134.747 111.839 134.96C112.415 135.173 113.013 135.28 113.631 135.28ZM132.819 138.352C131.688 138.352 130.621 138.181 129.619 137.84C128.616 137.477 127.731 136.944 126.963 136.24C126.216 135.515 125.619 134.608 125.171 133.52C124.723 132.432 124.499 131.152 124.499 129.68V129.04C124.499 127.632 124.712 126.405 125.139 125.36C125.565 124.315 126.141 123.451 126.867 122.768C127.613 122.064 128.467 121.541 129.427 121.2C130.387 120.859 131.411 120.688 132.499 120.688C135.08 120.688 137.053 121.381 138.419 122.768C139.805 124.155 140.499 126.139 140.499 128.72V130.512H128.083C128.104 131.387 128.243 132.133 128.499 132.752C128.776 133.349 129.128 133.84 129.555 134.224C130.003 134.587 130.504 134.853 131.059 135.024C131.635 135.195 132.221 135.28 132.819 135.28C134.035 135.28 134.92 135.088 135.475 134.704C136.051 134.32 136.445 133.819 136.659 133.2H140.179C139.837 134.885 138.995 136.165 137.651 137.04C136.328 137.915 134.717 138.352 132.819 138.352ZM132.659 123.76C132.061 123.76 131.485 123.835 130.931 123.984C130.397 124.133 129.917 124.379 129.491 124.72C129.085 125.04 128.755 125.467 128.499 126C128.243 126.512 128.104 127.141 128.083 127.888H136.979C136.957 127.099 136.829 126.437 136.595 125.904C136.381 125.371 136.083 124.944 135.699 124.624C135.315 124.304 134.856 124.08 134.323 123.952C133.811 123.824 133.256 123.76 132.659 123.76ZM144.021 121.04H147.541V133.04L155.701 121.04H159.061V138H155.541V126L147.381 138H144.021V121.04ZM151.541 119.12C149.771 119.12 148.469 118.736 147.637 117.968C146.827 117.179 146.421 116.069 146.421 114.64H149.685C149.685 115.408 149.835 115.963 150.133 116.304C150.453 116.645 150.923 116.816 151.541 116.816C152.16 116.816 152.619 116.645 152.917 116.304C153.237 115.963 153.397 115.408 153.397 114.64H156.661C156.661 116.069 156.245 117.179 155.413 117.968C154.581 118.736 153.291 119.12 151.541 119.12ZM171.24 121.04H174.76V133.04L182.92 121.04H186.28V138H182.76V126L174.6 138H171.24V121.04ZM189.171 134.992H191.091C191.305 134.672 191.497 134.192 191.667 133.552C191.859 132.912 192.019 132.187 192.147 131.376C192.275 130.544 192.371 129.659 192.435 128.72C192.499 127.76 192.531 126.8 192.531 125.84V121.04H205.171V134.992H207.411V142H204.147V138H192.435V142H189.171V134.992ZM201.651 134.992V124.048H195.923V126.48C195.923 128.123 195.827 129.701 195.635 131.216C195.443 132.709 195.123 133.968 194.675 134.992H201.651ZM217.663 138.352C216.532 138.352 215.465 138.181 214.463 137.84C213.46 137.477 212.575 136.944 211.807 136.24C211.06 135.515 210.463 134.608 210.015 133.52C209.567 132.432 209.343 131.152 209.343 129.68V129.04C209.343 127.632 209.556 126.405 209.983 125.36C210.409 124.315 210.985 123.451 211.711 122.768C212.457 122.064 213.311 121.541 214.271 121.2C215.231 120.859 216.255 120.688 217.343 120.688C219.924 120.688 221.897 121.381 223.263 122.768C224.649 124.155 225.343 126.139 225.343 128.72V130.512H212.927C212.948 131.387 213.087 132.133 213.343 132.752C213.62 133.349 213.972 133.84 214.399 134.224C214.847 134.587 215.348 134.853 215.903 135.024C216.479 135.195 217.065 135.28 217.663 135.28C218.879 135.28 219.764 135.088 220.319 134.704C220.895 134.32 221.289 133.819 221.503 133.2H225.023C224.681 134.885 223.839 136.165 222.495 137.04C221.172 137.915 219.561 138.352 217.663 138.352ZM217.503 123.76C216.905 123.76 216.329 123.835 215.775 123.984C215.241 124.133 214.761 124.379 214.335 124.72C213.929 125.04 213.599 125.467 213.343 126C213.087 126.512 212.948 127.141 212.927 127.888H221.823C221.801 127.099 221.673 126.437 221.439 125.904C221.225 125.371 220.927 124.944 220.543 124.624C220.159 124.304 219.7 124.08 219.167 123.952C218.655 123.824 218.1 123.76 217.503 123.76ZM233.825 138.352C232.908 138.352 232.086 138.224 231.361 137.968C230.657 137.691 230.06 137.317 229.569 136.848C229.078 136.357 228.705 135.792 228.449 135.152C228.193 134.512 228.065 133.808 228.065 133.04C228.065 131.355 228.566 130.107 229.569 129.296C230.572 128.464 232.044 128.048 233.985 128.048H239.265V127.12C239.265 125.84 238.977 124.965 238.401 124.496C237.846 124.005 236.961 123.76 235.745 123.76C234.657 123.76 233.857 123.931 233.345 124.272C232.833 124.613 232.534 125.083 232.449 125.68H229.025C229.068 124.955 229.249 124.293 229.569 123.696C229.91 123.077 230.369 122.544 230.945 122.096C231.542 121.648 232.257 121.307 233.089 121.072C233.921 120.816 234.86 120.688 235.905 120.688C236.95 120.688 237.889 120.805 238.721 121.04C239.574 121.275 240.3 121.648 240.897 122.16C241.494 122.651 241.953 123.291 242.273 124.08C242.614 124.869 242.785 125.819 242.785 126.928V133.68C242.785 134.576 242.796 135.365 242.817 136.048C242.838 136.709 242.892 137.36 242.977 138H239.777C239.713 137.509 239.66 137.093 239.617 136.752C239.596 136.411 239.585 135.984 239.585 135.472C239.18 136.261 238.476 136.944 237.473 137.52C236.492 138.075 235.276 138.352 233.825 138.352ZM234.785 135.28C235.382 135.28 235.948 135.205 236.481 135.056C237.036 134.885 237.516 134.651 237.921 134.352C238.326 134.032 238.646 133.648 238.881 133.2C239.137 132.731 239.265 132.197 239.265 131.6V130.672H234.625C233.729 130.672 233.004 130.864 232.449 131.248C231.916 131.632 231.649 132.197 231.649 132.944C231.649 133.648 231.894 134.213 232.385 134.64C232.897 135.067 233.697 135.28 234.785 135.28ZM246.795 138.352C246.624 138.352 246.432 138.341 246.219 138.32C246.027 138.32 245.846 138.299 245.675 138.256V134.928C245.782 134.949 245.942 134.96 246.155 134.96C246.603 134.96 246.987 134.832 247.307 134.576C247.627 134.299 247.883 133.829 248.075 133.168C248.288 132.485 248.448 131.579 248.555 130.448C248.662 129.317 248.715 127.888 248.715 126.16V121.04H261.515V138H257.995V124.048H252.107V126.8C252.107 129.083 251.99 130.971 251.755 132.464C251.542 133.936 251.211 135.109 250.763 135.984C250.315 136.859 249.76 137.477 249.099 137.84C248.438 138.181 247.67 138.352 246.795 138.352ZM266.31 121.04H269.83V126.992H273.67C275.846 126.992 277.457 127.461 278.502 128.4C279.547 129.317 280.07 130.683 280.07 132.496C280.07 134.203 279.558 135.547 278.534 136.528C277.51 137.509 275.889 138 273.67 138H266.31V121.04ZM273.35 134.992C274.523 134.992 275.345 134.789 275.814 134.384C276.305 133.957 276.55 133.328 276.55 132.496C276.55 131.664 276.305 131.045 275.814 130.64C275.345 130.213 274.523 130 273.35 130H269.83V134.992H273.35ZM283.271 121.04H286.791V127.856H294.791V121.04H298.311V138H294.791V130.864H286.791V138H283.271V121.04ZM310.163 138.352C308.989 138.352 307.891 138.171 306.867 137.808C305.864 137.424 304.989 136.869 304.243 136.144C303.496 135.419 302.909 134.523 302.483 133.456C302.056 132.368 301.843 131.109 301.843 129.68V129.04C301.843 127.696 302.056 126.512 302.483 125.488C302.909 124.443 303.496 123.568 304.243 122.864C304.989 122.139 305.864 121.595 306.867 121.232C307.891 120.869 308.989 120.688 310.163 120.688C311.336 120.688 312.424 120.869 313.427 121.232C314.451 121.595 315.336 122.139 316.083 122.864C316.829 123.568 317.416 124.443 317.843 125.488C318.269 126.512 318.483 127.696 318.483 129.04V129.68C318.483 131.109 318.269 132.368 317.843 133.456C317.416 134.523 316.829 135.419 316.083 136.144C315.336 136.869 314.451 137.424 313.427 137.808C312.424 138.171 311.336 138.352 310.163 138.352ZM310.163 135.28C310.781 135.28 311.368 135.173 311.923 134.96C312.499 134.747 313 134.416 313.427 133.968C313.875 133.52 314.227 132.944 314.483 132.24C314.76 131.536 314.899 130.683 314.899 129.68V129.04C314.899 128.123 314.76 127.333 314.483 126.672C314.227 126.011 313.875 125.467 313.427 125.04C313 124.613 312.499 124.293 311.923 124.08C311.368 123.867 310.781 123.76 310.163 123.76C309.544 123.76 308.947 123.867 308.371 124.08C307.816 124.293 307.315 124.613 306.867 125.04C306.44 125.467 306.088 126.011 305.811 126.672C305.555 127.333 305.427 128.123 305.427 129.04V129.68C305.427 130.683 305.555 131.536 305.811 132.24C306.088 132.944 306.44 133.52 306.867 133.968C307.315 134.416 307.816 134.747 308.371 134.96C308.947 135.173 309.544 135.28 310.163 135.28ZM321.99 121.04H325.51V133.04L333.67 121.04H337.03V138H333.51V126L325.35 138H321.99V121.04ZM329.51 119.12C327.739 119.12 326.438 118.736 325.606 117.968C324.795 117.179 324.39 116.069 324.39 114.64H327.654C327.654 115.408 327.803 115.963 328.102 116.304C328.422 116.645 328.891 116.816 329.51 116.816C330.129 116.816 330.587 116.645 330.886 116.304C331.206 115.963 331.366 115.408 331.366 114.64H334.63C334.63 116.069 334.214 117.179 333.382 117.968C332.55 118.736 331.259 119.12 329.51 119.12ZM349.209 121.04H363.929V138H360.409V124.048H352.729V138H349.209V121.04ZM375.756 138.352C374.583 138.352 373.484 138.171 372.46 137.808C371.458 137.424 370.583 136.869 369.836 136.144C369.09 135.419 368.503 134.523 368.076 133.456C367.65 132.368 367.436 131.109 367.436 129.68V129.04C367.436 127.696 367.65 126.512 368.076 125.488C368.503 124.443 369.09 123.568 369.836 122.864C370.583 122.139 371.458 121.595 372.46 121.232C373.484 120.869 374.583 120.688 375.756 120.688C376.93 120.688 378.018 120.869 379.02 121.232C380.044 121.595 380.93 122.139 381.676 122.864C382.423 123.568 383.01 124.443 383.436 125.488C383.863 126.512 384.076 127.696 384.076 129.04V129.68C384.076 131.109 383.863 132.368 383.436 133.456C383.01 134.523 382.423 135.419 381.676 136.144C380.93 136.869 380.044 137.424 379.02 137.808C378.018 138.171 376.93 138.352 375.756 138.352ZM375.756 135.28C376.375 135.28 376.962 135.173 377.516 134.96C378.092 134.747 378.594 134.416 379.02 133.968C379.468 133.52 379.82 132.944 380.076 132.24C380.354 131.536 380.492 130.683 380.492 129.68V129.04C380.492 128.123 380.354 127.333 380.076 126.672C379.82 126.011 379.468 125.467 379.02 125.04C378.594 124.613 378.092 124.293 377.516 124.08C376.962 123.867 376.375 123.76 375.756 123.76C375.138 123.76 374.54 123.867 373.964 124.08C373.41 124.293 372.908 124.613 372.46 125.04C372.034 125.467 371.682 126.011 371.404 126.672C371.148 127.333 371.02 128.123 371.02 129.04V129.68C371.02 130.683 371.148 131.536 371.404 132.24C371.682 132.944 372.034 133.52 372.46 133.968C372.908 134.416 373.41 134.747 373.964 134.96C374.54 135.173 375.138 135.28 375.756 135.28ZM394.944 138.352C393.813 138.352 392.746 138.181 391.744 137.84C390.741 137.477 389.856 136.944 389.088 136.24C388.341 135.515 387.744 134.608 387.296 133.52C386.848 132.432 386.624 131.152 386.624 129.68V129.04C386.624 127.632 386.837 126.405 387.264 125.36C387.69 124.315 388.266 123.451 388.992 122.768C389.738 122.064 390.592 121.541 391.552 121.2C392.512 120.859 393.536 120.688 394.624 120.688C397.205 120.688 399.178 121.381 400.544 122.768C401.93 124.155 402.624 126.139 402.624 128.72V130.512H390.208C390.229 131.387 390.368 132.133 390.624 132.752C390.901 133.349 391.253 133.84 391.68 134.224C392.128 134.587 392.629 134.853 393.184 135.024C393.76 135.195 394.346 135.28 394.944 135.28C396.16 135.28 397.045 135.088 397.6 134.704C398.176 134.32 398.57 133.819 398.784 133.2H402.304C401.962 134.885 401.12 136.165 399.776 137.04C398.453 137.915 396.842 138.352 394.944 138.352ZM394.784 123.76C394.186 123.76 393.61 123.835 393.056 123.984C392.522 124.133 392.042 124.379 391.616 124.72C391.21 125.04 390.88 125.467 390.624 126C390.368 126.512 390.229 127.141 390.208 127.888H399.104C399.082 127.099 398.954 126.437 398.72 125.904C398.506 125.371 398.208 124.944 397.824 124.624C397.44 124.304 396.981 124.08 396.448 123.952C395.936 123.824 395.381 123.76 394.784 123.76ZM412.386 138.352C410.082 138.352 408.301 137.883 407.042 136.944C405.805 135.984 405.133 134.629 405.026 132.88H408.61C408.717 133.648 409.058 134.245 409.634 134.672C410.21 135.077 411.106 135.28 412.322 135.28C413.773 135.28 414.776 135.045 415.33 134.576C415.885 134.107 416.162 133.52 416.162 132.816C416.162 132.176 415.917 131.675 415.426 131.312C414.957 130.928 414.125 130.736 412.93 130.736H410.146V127.984H412.706C413.688 127.984 414.402 127.781 414.85 127.376C415.298 126.971 415.522 126.459 415.522 125.84C415.522 125.285 415.288 124.805 414.818 124.4C414.349 123.973 413.538 123.76 412.386 123.76C411.149 123.76 410.285 123.963 409.794 124.368C409.325 124.773 409.037 125.317 408.93 126H405.346C405.453 124.379 406.104 123.088 407.298 122.128C408.514 121.168 410.21 120.688 412.386 120.688C414.712 120.688 416.408 121.147 417.474 122.064C418.562 122.981 419.106 124.176 419.106 125.648C419.106 126.459 418.904 127.173 418.498 127.792C418.114 128.411 417.474 128.88 416.578 129.2C417.773 129.499 418.594 130 419.042 130.704C419.512 131.408 419.746 132.219 419.746 133.136C419.746 133.861 419.597 134.544 419.298 135.184C419 135.824 418.541 136.379 417.922 136.848C417.325 137.317 416.557 137.691 415.618 137.968C414.701 138.224 413.624 138.352 412.386 138.352ZM421.671 134.992H423.591C423.805 134.672 423.997 134.192 424.167 133.552C424.359 132.912 424.519 132.187 424.647 131.376C424.775 130.544 424.871 129.659 424.935 128.72C424.999 127.76 425.031 126.8 425.031 125.84V121.04H437.671V134.992H439.911V142H436.647V138H424.935V142H421.671V134.992ZM434.151 134.992V124.048H428.423V126.48C428.423 128.123 428.327 129.701 428.135 131.216C427.943 132.709 427.623 133.968 427.175 134.992H434.151ZM442.959 121.04H446.479V127.92H448.399L454.351 121.04H458.319L451.119 129.136L458.639 138H454.351L448.399 130.8H446.479V138H442.959V121.04ZM461.521 121.04H465.041V133.04L473.201 121.04H476.561V138H473.041V126L464.881 138H461.521V121.04ZM488.74 121.04H496.74C498.873 121.04 500.42 121.477 501.38 122.352C502.34 123.205 502.82 124.304 502.82 125.648C502.82 126.395 502.596 127.12 502.148 127.824C501.7 128.507 501.071 128.965 500.26 129.2C501.305 129.456 502.095 129.947 502.628 130.672C503.183 131.376 503.46 132.208 503.46 133.168C503.46 134.64 502.969 135.813 501.988 136.688C501.007 137.563 499.471 138 497.38 138H488.74V121.04ZM496.9 134.992C498.052 134.992 498.841 134.811 499.268 134.448C499.716 134.064 499.94 133.531 499.94 132.848C499.94 132.165 499.716 131.653 499.268 131.312C498.841 130.949 498.052 130.768 496.9 130.768H492.26V134.992H496.9ZM496.42 128.016C497.487 128.016 498.233 127.845 498.66 127.504C499.087 127.141 499.3 126.651 499.3 126.032C499.3 125.413 499.087 124.933 498.66 124.592C498.233 124.229 497.487 124.048 496.42 124.048H492.26V128.016H496.42ZM515.318 115.6H523.478C526.486 115.6 528.704 116.251 530.134 117.552C531.563 118.832 532.278 120.56 532.278 122.736C532.278 124.912 531.563 126.651 530.134 127.952C528.704 129.232 526.486 129.872 523.478 129.872H519.158V138H515.318V115.6ZM523.158 126.544C524.16 126.544 525.003 126.469 525.686 126.32C526.368 126.149 526.912 125.915 527.318 125.616C527.723 125.296 528.011 124.901 528.182 124.432C528.352 123.941 528.438 123.376 528.438 122.736C528.438 122.096 528.352 121.541 528.182 121.072C528.011 120.603 527.723 120.208 527.318 119.888C526.912 119.568 526.368 119.333 525.686 119.184C525.003 119.013 524.16 118.928 523.158 118.928H519.158V126.544H523.158ZM542.85 138.352C541.677 138.352 540.578 138.171 539.554 137.808C538.551 137.424 537.677 136.869 536.93 136.144C536.183 135.419 535.597 134.523 535.17 133.456C534.743 132.368 534.53 131.109 534.53 129.68V129.04C534.53 127.696 534.743 126.512 535.17 125.488C535.597 124.443 536.183 123.568 536.93 122.864C537.677 122.139 538.551 121.595 539.554 121.232C540.578 120.869 541.677 120.688 542.85 120.688C544.023 120.688 545.111 120.869 546.114 121.232C547.138 121.595 548.023 122.139 548.77 122.864C549.517 123.568 550.103 124.443 550.53 125.488C550.957 126.512 551.17 127.696 551.17 129.04V129.68C551.17 131.109 550.957 132.368 550.53 133.456C550.103 134.523 549.517 135.419 548.77 136.144C548.023 136.869 547.138 137.424 546.114 137.808C545.111 138.171 544.023 138.352 542.85 138.352ZM542.85 135.28C543.469 135.28 544.055 135.173 544.61 134.96C545.186 134.747 545.687 134.416 546.114 133.968C546.562 133.52 546.914 132.944 547.17 132.24C547.447 131.536 547.586 130.683 547.586 129.68V129.04C547.586 128.123 547.447 127.333 547.17 126.672C546.914 126.011 546.562 125.467 546.114 125.04C545.687 124.613 545.186 124.293 544.61 124.08C544.055 123.867 543.469 123.76 542.85 123.76C542.231 123.76 541.634 123.867 541.058 124.08C540.503 124.293 540.002 124.613 539.554 125.04C539.127 125.467 538.775 126.011 538.498 126.672C538.242 127.333 538.114 128.123 538.114 129.04V129.68C538.114 130.683 538.242 131.536 538.498 132.24C538.775 132.944 539.127 133.52 539.554 133.968C540.002 134.416 540.503 134.747 541.058 134.96C541.634 135.173 542.231 135.28 542.85 135.28ZM561.718 138.352C560.566 138.352 559.499 138.181 558.518 137.84C557.558 137.477 556.715 136.933 555.99 136.208C555.286 135.483 554.731 134.576 554.326 133.488C553.92 132.4 553.718 131.131 553.718 129.68V129.04C553.718 127.675 553.931 126.469 554.358 125.424C554.784 124.379 555.36 123.504 556.086 122.8C556.832 122.096 557.686 121.573 558.646 121.232C559.627 120.869 560.651 120.688 561.718 120.688C562.827 120.688 563.808 120.837 564.662 121.136C565.536 121.435 566.272 121.851 566.87 122.384C567.488 122.896 567.979 123.504 568.342 124.208C568.704 124.912 568.95 125.669 569.078 126.48H565.494C565.28 125.691 564.896 125.04 564.342 124.528C563.787 124.016 562.912 123.76 561.718 123.76C561.12 123.76 560.555 123.867 560.022 124.08C559.488 124.272 559.019 124.581 558.614 125.008C558.208 125.435 557.888 125.989 557.654 126.672C557.419 127.333 557.302 128.123 557.302 129.04V129.68C557.302 130.683 557.419 131.547 557.654 132.272C557.888 132.976 558.208 133.552 558.614 134C559.019 134.448 559.488 134.779 560.022 134.992C560.555 135.184 561.12 135.28 561.718 135.28C563.702 135.28 564.96 134.373 565.494 132.56H569.078C568.907 133.456 568.608 134.267 568.182 134.992C567.776 135.696 567.254 136.304 566.614 136.816C565.974 137.307 565.238 137.691 564.406 137.968C563.574 138.224 562.678 138.352 561.718 138.352ZM579.468 138.352C578.316 138.352 577.249 138.181 576.268 137.84C575.308 137.477 574.465 136.933 573.74 136.208C573.036 135.483 572.481 134.576 572.076 133.488C571.67 132.4 571.468 131.131 571.468 129.68V129.04C571.468 127.675 571.681 126.469 572.108 125.424C572.534 124.379 573.11 123.504 573.836 122.8C574.582 122.096 575.436 121.573 576.396 121.232C577.377 120.869 578.401 120.688 579.468 120.688C580.577 120.688 581.558 120.837 582.412 121.136C583.286 121.435 584.022 121.851 584.62 122.384C585.238 122.896 585.729 123.504 586.092 124.208C586.454 124.912 586.7 125.669 586.828 126.48H583.244C583.03 125.691 582.646 125.04 582.092 124.528C581.537 124.016 580.662 123.76 579.468 123.76C578.87 123.76 578.305 123.867 577.772 124.08C577.238 124.272 576.769 124.581 576.364 125.008C575.958 125.435 575.638 125.989 575.404 126.672C575.169 127.333 575.052 128.123 575.052 129.04V129.68C575.052 130.683 575.169 131.547 575.404 132.272C575.638 132.976 575.958 133.552 576.364 134C576.769 134.448 577.238 134.779 577.772 134.992C578.305 135.184 578.87 135.28 579.468 135.28C581.452 135.28 582.71 134.373 583.244 132.56H586.828C586.657 133.456 586.358 134.267 585.932 134.992C585.526 135.696 585.004 136.304 584.364 136.816C583.724 137.307 582.988 137.691 582.156 137.968C581.324 138.224 580.428 138.352 579.468 138.352ZM590.178 121.04H593.698V133.04L601.858 121.04H605.218V138H601.698V126L593.538 138H590.178V121.04ZM609.709 121.04H613.229V127.856H615.117C615.223 126.704 615.501 125.691 615.949 124.816C616.397 123.92 616.962 123.173 617.645 122.576C618.349 121.957 619.149 121.488 620.045 121.168C620.962 120.848 621.943 120.688 622.989 120.688C624.119 120.688 625.175 120.869 626.157 121.232C627.138 121.595 627.981 122.139 628.685 122.864C629.41 123.568 629.975 124.443 630.381 125.488C630.786 126.512 630.989 127.696 630.989 129.04V129.68C630.989 131.109 630.786 132.368 630.381 133.456C629.975 134.523 629.41 135.419 628.685 136.144C627.981 136.869 627.138 137.424 626.157 137.808C625.175 138.171 624.119 138.352 622.989 138.352C621.922 138.352 620.93 138.192 620.013 137.872C619.117 137.552 618.317 137.083 617.613 136.464C616.93 135.824 616.365 135.045 615.917 134.128C615.49 133.189 615.223 132.101 615.117 130.864H613.229V138H609.709V121.04ZM622.989 135.28C623.565 135.28 624.119 135.173 624.653 134.96C625.186 134.747 625.655 134.416 626.061 133.968C626.466 133.52 626.786 132.944 627.021 132.24C627.277 131.536 627.405 130.683 627.405 129.68V129.04C627.405 128.123 627.277 127.333 627.021 126.672C626.786 126.011 626.466 125.467 626.061 125.04C625.655 124.613 625.186 124.293 624.653 124.08C624.119 123.867 623.565 123.76 622.989 123.76C622.413 123.76 621.858 123.867 621.325 124.08C620.791 124.293 620.322 124.613 619.917 125.04C619.511 125.467 619.181 126.011 618.925 126.672C618.69 127.333 618.573 128.123 618.573 129.04V129.68C618.573 130.683 618.69 131.536 618.925 132.24C619.181 132.944 619.511 133.52 619.917 133.968C620.322 134.416 620.791 134.747 621.325 134.96C621.858 135.173 622.413 135.28 622.989 135.28ZM2.24 165.04H16.96V182H13.44V168.048H5.76V182H2.24V165.04ZM28.7875 182.352C27.6142 182.352 26.5155 182.171 25.4915 181.808C24.4888 181.424 23.6142 180.869 22.8675 180.144C22.1208 179.419 21.5342 178.523 21.1075 177.456C20.6808 176.368 20.4675 175.109 20.4675 173.68V173.04C20.4675 171.696 20.6808 170.512 21.1075 169.488C21.5342 168.443 22.1208 167.568 22.8675 166.864C23.6142 166.139 24.4888 165.595 25.4915 165.232C26.5155 164.869 27.6142 164.688 28.7875 164.688C29.9608 164.688 31.0488 164.869 32.0515 165.232C33.0755 165.595 33.9608 166.139 34.7075 166.864C35.4542 167.568 36.0408 168.443 36.4675 169.488C36.8942 170.512 37.1075 171.696 37.1075 173.04V173.68C37.1075 175.109 36.8942 176.368 36.4675 177.456C36.0408 178.523 35.4542 179.419 34.7075 180.144C33.9608 180.869 33.0755 181.424 32.0515 181.808C31.0488 182.171 29.9608 182.352 28.7875 182.352ZM28.7875 179.28C29.4062 179.28 29.9928 179.173 30.5475 178.96C31.1235 178.747 31.6248 178.416 32.0515 177.968C32.4995 177.52 32.8515 176.944 33.1075 176.24C33.3848 175.536 33.5235 174.683 33.5235 173.68V173.04C33.5235 172.123 33.3848 171.333 33.1075 170.672C32.8515 170.011 32.4995 169.467 32.0515 169.04C31.6248 168.613 31.1235 168.293 30.5475 168.08C29.9928 167.867 29.4062 167.76 28.7875 167.76C28.1688 167.76 27.5715 167.867 26.9955 168.08C26.4408 168.293 25.9395 168.613 25.4915 169.04C25.0648 169.467 24.7128 170.011 24.4355 170.672C24.1795 171.333 24.0515 172.123 24.0515 173.04V173.68C24.0515 174.683 24.1795 175.536 24.4355 176.24C24.7128 176.944 25.0648 177.52 25.4915 177.968C25.9395 178.416 26.4408 178.747 26.9955 178.96C27.5715 179.173 28.1688 179.28 28.7875 179.28ZM50.535 175.504C50.0443 175.803 49.4577 176.069 48.775 176.304C48.1137 176.539 47.2603 176.656 46.215 176.656C44.1883 176.656 42.6417 176.176 41.575 175.216C40.5083 174.256 39.975 172.731 39.975 170.64V165.04H43.495V170.16C43.495 171.44 43.751 172.336 44.263 172.848C44.7963 173.339 45.7137 173.584 47.015 173.584C47.911 173.584 48.6577 173.488 49.255 173.296C49.8737 173.083 50.3003 172.88 50.535 172.688V165.04H54.055V182H50.535V175.504ZM62.5213 168.048H56.9213V165.04H71.6413V168.048H66.0413V182H62.5213V168.048ZM74.5213 165.04H78.0413V177.04L86.2013 165.04H89.5613V182H86.0413V170L77.8813 182H74.5213V165.04ZM101.74 165.04H109.74C111.873 165.04 113.42 165.477 114.38 166.352C115.34 167.205 115.82 168.304 115.82 169.648C115.82 170.395 115.596 171.12 115.148 171.824C114.7 172.507 114.071 172.965 113.26 173.2C114.305 173.456 115.095 173.947 115.628 174.672C116.183 175.376 116.46 176.208 116.46 177.168C116.46 178.64 115.969 179.813 114.988 180.688C114.007 181.563 112.471 182 110.38 182H101.74V165.04ZM109.9 178.992C111.052 178.992 111.841 178.811 112.268 178.448C112.716 178.064 112.94 177.531 112.94 176.848C112.94 176.165 112.716 175.653 112.268 175.312C111.841 174.949 111.052 174.768 109.9 174.768H105.26V178.992H109.9ZM109.42 172.016C110.487 172.016 111.233 171.845 111.66 171.504C112.087 171.141 112.3 170.651 112.3 170.032C112.3 169.413 112.087 168.933 111.66 168.592C111.233 168.229 110.487 168.048 109.42 168.048H105.26V172.016H109.42ZM127.03 182.352C125.878 182.352 124.811 182.181 123.83 181.84C122.87 181.477 122.027 180.933 121.302 180.208C120.598 179.483 120.043 178.576 119.638 177.488C119.233 176.4 119.03 175.131 119.03 173.68V173.04C119.03 171.675 119.243 170.469 119.67 169.424C120.097 168.379 120.673 167.504 121.398 166.8C122.145 166.096 122.998 165.573 123.958 165.232C124.939 164.869 125.963 164.688 127.03 164.688C128.139 164.688 129.121 164.837 129.974 165.136C130.849 165.435 131.585 165.851 132.182 166.384C132.801 166.896 133.291 167.504 133.654 168.208C134.017 168.912 134.262 169.669 134.39 170.48H130.806C130.593 169.691 130.209 169.04 129.654 168.528C129.099 168.016 128.225 167.76 127.03 167.76C126.433 167.76 125.867 167.867 125.334 168.08C124.801 168.272 124.331 168.581 123.926 169.008C123.521 169.435 123.201 169.989 122.966 170.672C122.731 171.333 122.614 172.123 122.614 173.04V173.68C122.614 174.683 122.731 175.547 122.966 176.272C123.201 176.976 123.521 177.552 123.926 178C124.331 178.448 124.801 178.779 125.334 178.992C125.867 179.184 126.433 179.28 127.03 179.28C129.014 179.28 130.273 178.373 130.806 176.56H134.39C134.219 177.456 133.921 178.267 133.494 178.992C133.089 179.696 132.566 180.304 131.926 180.816C131.286 181.307 130.55 181.691 129.718 181.968C128.886 182.224 127.99 182.352 127.03 182.352ZM145.1 182.352C143.969 182.352 142.903 182.181 141.9 181.84C140.897 181.477 140.012 180.944 139.244 180.24C138.497 179.515 137.9 178.608 137.452 177.52C137.004 176.432 136.78 175.152 136.78 173.68V173.04C136.78 171.632 136.993 170.405 137.42 169.36C137.847 168.315 138.423 167.451 139.148 166.768C139.895 166.064 140.748 165.541 141.708 165.2C142.668 164.859 143.692 164.688 144.78 164.688C147.361 164.688 149.335 165.381 150.7 166.768C152.087 168.155 152.78 170.139 152.78 172.72V174.512H140.364C140.385 175.387 140.524 176.133 140.78 176.752C141.057 177.349 141.409 177.84 141.836 178.224C142.284 178.587 142.785 178.853 143.34 179.024C143.916 179.195 144.503 179.28 145.1 179.28C146.316 179.28 147.201 179.088 147.756 178.704C148.332 178.32 148.727 177.819 148.94 177.2H152.46C152.119 178.885 151.276 180.165 149.932 181.04C148.609 181.915 146.999 182.352 145.1 182.352ZM144.94 167.76C144.343 167.76 143.767 167.835 143.212 167.984C142.679 168.133 142.199 168.379 141.772 168.72C141.367 169.04 141.036 169.467 140.78 170C140.524 170.512 140.385 171.141 140.364 171.888H149.26C149.239 171.099 149.111 170.437 148.876 169.904C148.663 169.371 148.364 168.944 147.98 168.624C147.596 168.304 147.137 168.08 146.604 167.952C146.092 167.824 145.537 167.76 144.94 167.76ZM163.99 165.04H175.83V168.048H167.51V182H163.99V165.04ZM185.756 182.352C184.583 182.352 183.484 182.171 182.46 181.808C181.458 181.424 180.583 180.869 179.836 180.144C179.09 179.419 178.503 178.523 178.076 177.456C177.65 176.368 177.436 175.109 177.436 173.68V173.04C177.436 171.696 177.65 170.512 178.076 169.488C178.503 168.443 179.09 167.568 179.836 166.864C180.583 166.139 181.458 165.595 182.46 165.232C183.484 164.869 184.583 164.688 185.756 164.688C186.93 164.688 188.018 164.869 189.02 165.232C190.044 165.595 190.93 166.139 191.676 166.864C192.423 167.568 193.01 168.443 193.436 169.488C193.863 170.512 194.076 171.696 194.076 173.04V173.68C194.076 175.109 193.863 176.368 193.436 177.456C193.01 178.523 192.423 179.419 191.676 180.144C190.93 180.869 190.044 181.424 189.02 181.808C188.018 182.171 186.93 182.352 185.756 182.352ZM185.756 179.28C186.375 179.28 186.962 179.173 187.516 178.96C188.092 178.747 188.594 178.416 189.02 177.968C189.468 177.52 189.82 176.944 190.076 176.24C190.354 175.536 190.492 174.683 190.492 173.68V173.04C190.492 172.123 190.354 171.333 190.076 170.672C189.82 170.011 189.468 169.467 189.02 169.04C188.594 168.613 188.092 168.293 187.516 168.08C186.962 167.867 186.375 167.76 185.756 167.76C185.138 167.76 184.54 167.867 183.964 168.08C183.41 168.293 182.908 168.613 182.46 169.04C182.034 169.467 181.682 170.011 181.404 170.672C181.148 171.333 181.02 172.123 181.02 173.04V173.68C181.02 174.683 181.148 175.536 181.404 176.24C181.682 176.944 182.034 177.52 182.46 177.968C182.908 178.416 183.41 178.747 183.964 178.96C184.54 179.173 185.138 179.28 185.756 179.28ZM201.271 168.048H195.671V165.04H210.391V168.048H204.791V182H201.271V168.048ZM220.319 182.352C219.145 182.352 218.047 182.171 217.023 181.808C216.02 181.424 215.145 180.869 214.399 180.144C213.652 179.419 213.065 178.523 212.639 177.456C212.212 176.368 211.999 175.109 211.999 173.68V173.04C211.999 171.696 212.212 170.512 212.639 169.488C213.065 168.443 213.652 167.568 214.399 166.864C215.145 166.139 216.02 165.595 217.023 165.232C218.047 164.869 219.145 164.688 220.319 164.688C221.492 164.688 222.58 164.869 223.583 165.232C224.607 165.595 225.492 166.139 226.239 166.864C226.985 167.568 227.572 168.443 227.999 169.488C228.425 170.512 228.639 171.696 228.639 173.04V173.68C228.639 175.109 228.425 176.368 227.999 177.456C227.572 178.523 226.985 179.419 226.239 180.144C225.492 180.869 224.607 181.424 223.583 181.808C222.58 182.171 221.492 182.352 220.319 182.352ZM220.319 179.28C220.937 179.28 221.524 179.173 222.079 178.96C222.655 178.747 223.156 178.416 223.583 177.968C224.031 177.52 224.383 176.944 224.639 176.24C224.916 175.536 225.055 174.683 225.055 173.68V173.04C225.055 172.123 224.916 171.333 224.639 170.672C224.383 170.011 224.031 169.467 223.583 169.04C223.156 168.613 222.655 168.293 222.079 168.08C221.524 167.867 220.937 167.76 220.319 167.76C219.7 167.76 219.103 167.867 218.527 168.08C217.972 168.293 217.471 168.613 217.023 169.04C216.596 169.467 216.244 170.011 215.967 170.672C215.711 171.333 215.583 172.123 215.583 173.04V173.68C215.583 174.683 215.711 175.536 215.967 176.24C216.244 176.944 216.596 177.52 217.023 177.968C217.471 178.416 217.972 178.747 218.527 178.96C219.103 179.173 219.7 179.28 220.319 179.28ZM232.146 165.04H240.146C242.28 165.04 243.826 165.477 244.786 166.352C245.746 167.205 246.226 168.304 246.226 169.648C246.226 170.395 246.002 171.12 245.554 171.824C245.106 172.507 244.477 172.965 243.666 173.2C244.712 173.456 245.501 173.947 246.034 174.672C246.589 175.376 246.866 176.208 246.866 177.168C246.866 178.64 246.376 179.813 245.394 180.688C244.413 181.563 242.877 182 240.786 182H232.146V165.04ZM240.306 178.992C241.458 178.992 242.248 178.811 242.674 178.448C243.122 178.064 243.346 177.531 243.346 176.848C243.346 176.165 243.122 175.653 242.674 175.312C242.248 174.949 241.458 174.768 240.306 174.768H235.666V178.992H240.306ZM239.826 172.016C240.893 172.016 241.64 171.845 242.066 171.504C242.493 171.141 242.706 170.651 242.706 170.032C242.706 169.413 242.493 168.933 242.066 168.592C241.64 168.229 240.893 168.048 239.826 168.048H235.666V172.016H239.826ZM257.756 182.352C256.583 182.352 255.484 182.171 254.46 181.808C253.458 181.424 252.583 180.869 251.836 180.144C251.09 179.419 250.503 178.523 250.076 177.456C249.65 176.368 249.436 175.109 249.436 173.68V173.04C249.436 171.696 249.65 170.512 250.076 169.488C250.503 168.443 251.09 167.568 251.836 166.864C252.583 166.139 253.458 165.595 254.46 165.232C255.484 164.869 256.583 164.688 257.756 164.688C258.93 164.688 260.018 164.869 261.02 165.232C262.044 165.595 262.93 166.139 263.676 166.864C264.423 167.568 265.01 168.443 265.436 169.488C265.863 170.512 266.076 171.696 266.076 173.04V173.68C266.076 175.109 265.863 176.368 265.436 177.456C265.01 178.523 264.423 179.419 263.676 180.144C262.93 180.869 262.044 181.424 261.02 181.808C260.018 182.171 258.93 182.352 257.756 182.352ZM257.756 179.28C258.375 179.28 258.962 179.173 259.516 178.96C260.092 178.747 260.594 178.416 261.02 177.968C261.468 177.52 261.82 176.944 262.076 176.24C262.354 175.536 262.492 174.683 262.492 173.68V173.04C262.492 172.123 262.354 171.333 262.076 170.672C261.82 170.011 261.468 169.467 261.02 169.04C260.594 168.613 260.092 168.293 259.516 168.08C258.962 167.867 258.375 167.76 257.756 167.76C257.138 167.76 256.54 167.867 255.964 168.08C255.41 168.293 254.908 168.613 254.46 169.04C254.034 169.467 253.682 170.011 253.404 170.672C253.148 171.333 253.02 172.123 253.02 173.04V173.68C253.02 174.683 253.148 175.536 253.404 176.24C253.682 176.944 254.034 177.52 254.46 177.968C254.908 178.416 255.41 178.747 255.964 178.96C256.54 179.173 257.138 179.28 257.756 179.28ZM270.544 159.6H274.064V174.8H270.544V159.6ZM272.304 182.352C271.578 182.352 270.97 182.107 270.48 181.616C269.989 181.125 269.744 180.517 269.744 179.792C269.744 179.045 269.989 178.437 270.48 177.968C270.97 177.477 271.578 177.232 272.304 177.232C273.029 177.232 273.637 177.477 274.128 177.968C274.618 178.437 274.864 179.045 274.864 179.792C274.864 180.517 274.618 181.125 274.128 181.616C273.637 182.107 273.029 182.352 272.304 182.352Z" fill="white"/>
<path fill-rule="evenodd" clip-rule="evenodd" d="M22.2469 1.0332H3V78.5499H12.4737V40.6166L29.658 78.5499H41.028L23.9686 43.5081C34.4904 42.9332 40.4291 36.5832 40.4291 23.7666V20.6665C40.4291 7.85821 33.7085 1.0332 22.2469 1.0332ZM12.4737 34.9332V10.5415L21.2987 10.5082C28.2105 10.5082 30.9719 13.5082 30.9719 21.6665V22.7415C30.9719 31.4166 28.2105 34.9332 21.2987 34.9332H12.4737Z" fill="#F6474F"/>
<path d="M52.9053 1.0332V54.6748C52.9053 66.0414 55.4006 70.0748 62.2875 70.0748C69.1745 70.0748 71.6864 66.0414 71.6864 54.6748V1.0332H81.1851V54.6748C81.1851 71.5166 75.0633 79.5832 62.2709 79.5832C49.4784 79.5832 43.415 71.5166 43.415 54.6748V1.0332H52.9053Z" fill="#F6474F"/>
<path d="M101.979 0C112.11 0 118.473 6.71667 118.473 20.6667V25.4249H109V20.9833C109 13.0167 107.278 9.50834 101.979 9.50834C96.9889 9.50834 95.1424 12.8417 95.1424 19.0167C95.1424 25.1918 97.2385 28.7333 101.88 32.1416L107.952 38.1333C114.306 42.9918 119.513 48.8834 119.513 58.9085C119.513 72.7583 112.585 79.5834 102.046 79.5834C91.5078 79.5834 84.5791 72.2418 84.5791 58.9085V53.1249H94.0529V58.1834C94.0529 65.5251 96.2404 70.0751 102.021 70.0751C107.802 70.0751 109.989 66.35 109.989 60.15C109.989 53.7418 107.993 49.6082 103.152 45.9833L96.4983 40.3C90.0521 35.4418 85.6855 29.3418 85.6855 19.0083C85.6688 5.475 92.1233 0 101.979 0Z" fill="#F6474F"/>
<path d="M139.101 0C149.24 0 155.595 6.71667 155.595 20.6667V25.4249H146.121V20.9833C146.121 13.0167 144.408 9.50834 139.101 9.50834C134.11 9.50834 132.272 12.8417 132.272 19.0167C132.272 25.1918 134.368 28.7333 139.01 32.1416L145.081 38.1333C151.428 42.9918 157.441 48.8834 157.441 58.9085C157.441 72.7583 147.585 79.5834 139.193 79.5834C128.679 79.5834 121.726 72.2418 121.726 58.9085V53.1249H131.199V58.1834C131.199 65.5251 133.395 70.0751 139.167 70.0751C144.94 70.0751 147.144 66.35 147.144 60.15C147.144 53.7418 145.139 49.6082 140.307 45.9833L133.653 40.3C127.215 35.4418 122.84 29.3418 122.84 19.0083C122.774 5.475 129.245 0 139.101 0Z" fill="#F6474F"/>
<path d="M252.476 0C262.617 0 268.972 6.71667 268.972 20.6667V25.4249H259.496V20.9833C259.496 13.0167 257.784 9.50834 252.476 9.50834C247.486 9.50834 245.649 12.8417 245.649 19.0167C245.649 25.1918 247.745 28.7333 252.377 32.1416L258.458 38.1333C264.804 42.9918 269.994 48.8834 269.994 58.9085C269.994 72.7583 263.074 79.5834 252.527 79.5834C241.981 79.5834 235.061 72.2418 235.061 58.9085V53.1249H244.534V58.1834C244.534 65.5251 246.73 70.0751 252.503 70.0751C258.274 70.0751 260.479 66.35 260.479 60.15C260.479 53.7418 258.474 49.6082 253.641 45.9833L246.989 40.3C240.55 35.4418 236.174 29.3418 236.174 19.0083C236.174 5.475 242.622 0 252.476 0Z" fill="white"/>
<path d="M289.606 0C299.738 0 306.102 6.71667 306.102 20.6667V25.4249H296.611V20.9833C296.611 13.0167 294.89 9.50834 289.591 9.50834C284.6 9.50834 282.753 12.8417 282.753 19.0167C282.753 25.1918 284.849 28.7333 289.491 32.1416L295.571 38.1333C301.916 42.9918 307.923 48.8834 307.923 58.9085C307.923 72.7583 298.066 79.5834 289.682 79.5834C279.168 79.5834 272.215 72.2418 272.215 58.9085V53.1249H281.688V58.1834C281.688 65.5251 283.877 70.0751 289.657 70.0751C295.437 70.0751 297.624 66.35 297.624 60.15C297.624 53.7418 295.628 49.6082 290.797 45.9833L284.143 40.3C277.704 35.4418 273.331 29.3418 273.331 19.0083C273.322 5.475 279.752 0 289.606 0Z" fill="white"/>
<path fill-rule="evenodd" clip-rule="evenodd" d="M180.68 1.0332H161.725V78.5499H171.198V48.9915H180.68C192.142 48.9915 198.696 41.3415 198.696 27.2832V21.6999C198.696 8.16654 192.142 1.0332 180.68 1.0332ZM171.198 39.4832V10.5415H179.732C186.553 10.5415 189.223 13.9499 189.223 22.7415V26.2499C189.223 35.6581 186.553 39.4832 179.732 39.4832H171.198Z" fill="white"/>
<path fill-rule="evenodd" clip-rule="evenodd" d="M221.478 1.0332H207.263L192.948 78.5332H202.513L206.215 59.5166H222.534L226.226 78.5332H235.792L221.478 1.0332ZM214.341 9.29988L221.403 50.0248L208.103 49.9999L214.341 9.29988Z" fill="white"/>
</svg>
